<svg width="165" height="49" viewBox="0 0 165 49" fill="none" xmlns="http://www.w3.org/2000/svg">
<rect width="165" height="49" rx="10" fill="#63B8FC"/>
<path d="M47.994 27.516L48.008 26.41L48.022 24.352C48.0313 24.0533 48.036 23.7453 48.036 23.428C48.036 23.1107 48.036 22.784 48.036 22.448C48.036 22.112 48.036 21.8133 48.036 21.552C48.036 21.2907 48.0453 20.9967 48.064 20.67V20.614C48.0733 20.5207 48.078 20.4273 48.078 20.334C48.0873 20.2313 48.092 20.1287 48.092 20.026C48.1013 19.858 48.1527 19.676 48.246 19.48C48.3113 19.3493 48.4093 19.2373 48.54 19.144C48.6893 19.0693 48.834 19.032 48.974 19.032C49.0487 19.032 49.114 19.0367 49.17 19.046C49.2353 19.046 49.296 19.0507 49.352 19.06C49.4733 19.0787 49.5807 19.1347 49.674 19.228C49.73 19.2747 49.7813 19.3493 49.828 19.452C49.8467 19.508 49.8607 19.564 49.87 19.62C49.8887 19.6667 49.9027 19.718 49.912 19.774C49.9213 19.8393 49.926 19.9 49.926 19.956C49.9353 20.012 49.94 20.068 49.94 20.124C49.94 20.1893 49.9353 20.25 49.926 20.306C49.926 20.3527 49.926 20.404 49.926 20.46V20.698L49.842 27.964V28.104C49.842 28.132 49.8373 28.1693 49.828 28.216C49.828 28.2533 49.8233 28.3 49.814 28.356C49.7953 28.4027 49.7767 28.454 49.758 28.51C49.7487 28.5567 49.7347 28.608 49.716 28.664C49.688 28.7107 49.6553 28.7573 49.618 28.804C49.59 28.8413 49.5527 28.8787 49.506 28.916C49.4313 28.9907 49.31 29.042 49.142 29.07C48.89 29.126 48.652 29.1027 48.428 29C48.316 28.9253 48.2367 28.832 48.19 28.72C48.162 28.692 48.148 28.664 48.148 28.636C48.1387 28.6173 48.1293 28.6033 48.12 28.594C48.1107 28.5847 48.1013 28.5707 48.092 28.552C48.0733 28.5053 48.0593 28.4587 48.05 28.412C48.0407 28.356 48.036 28.3 48.036 28.244C48.0267 28.1973 48.0173 28.1507 48.008 28.104C48.008 28.0573 48.0033 28.0107 47.994 27.964C47.9847 27.8893 47.9847 27.81 47.994 27.726V27.516ZM51.4978 24.002C51.4978 23.7873 51.4932 23.5587 51.4838 23.316C51.4838 23.0733 51.5258 22.854 51.6098 22.658C51.6845 22.4807 51.8058 22.3547 51.9738 22.28C52.1512 22.196 52.3238 22.1773 52.4918 22.224C52.6598 22.252 52.7905 22.3033 52.8838 22.378C52.9772 22.4527 53.0425 22.5413 53.0798 22.644C53.1265 22.7373 53.1545 22.8493 53.1638 22.98C53.1732 23.1013 53.1825 23.2227 53.1918 23.344C53.2852 23.176 53.4018 23.0407 53.5418 22.938C53.6818 22.8353 53.8265 22.7513 53.9758 22.686C54.1252 22.6207 54.2652 22.574 54.3958 22.546C54.5358 22.518 54.6432 22.504 54.7178 22.504C55.0725 22.504 55.4225 22.5833 55.7678 22.742C56.1225 22.8913 56.4165 23.106 56.6498 23.386C56.7805 23.554 56.8785 23.7313 56.9438 23.918C57.0185 24.0953 57.0698 24.282 57.0978 24.478C57.1352 24.674 57.1585 24.8747 57.1678 25.08C57.1772 25.276 57.1865 25.4767 57.1958 25.682C57.2425 26.2793 57.2425 26.872 57.1958 27.46C57.1865 27.5813 57.1818 27.7213 57.1818 27.88C57.1818 28.0387 57.1678 28.1973 57.1398 28.356C57.1212 28.5053 57.0792 28.6407 57.0138 28.762C56.9578 28.874 56.8598 28.944 56.7198 28.972C56.5238 29.0187 56.3605 29.028 56.2298 29C56.1085 28.9813 56.0105 28.9393 55.9358 28.874C55.8612 28.8087 55.8052 28.7247 55.7678 28.622C55.7305 28.5193 55.6978 28.4027 55.6698 28.272C55.6512 28.1693 55.6325 28.0527 55.6138 27.922C55.6045 27.782 55.5952 27.642 55.5858 27.502C55.5858 27.362 55.5812 27.2267 55.5718 27.096C55.5718 26.956 55.5718 26.83 55.5718 26.718C55.5718 26.5407 55.5672 26.3447 55.5578 26.13C55.5485 25.9153 55.5485 25.7147 55.5578 25.528C55.5578 25.0893 55.4412 24.758 55.2078 24.534C54.9838 24.3007 54.6758 24.2027 54.2838 24.24C53.9852 24.2773 53.7238 24.3987 53.4998 24.604C53.2758 24.8 53.1685 25.0567 53.1778 25.374C53.1778 25.4953 53.1778 25.6073 53.1778 25.71C53.1778 25.8127 53.1732 25.9153 53.1638 26.018C53.1638 26.1207 53.1638 26.2327 53.1638 26.354C53.1638 26.4753 53.1638 26.6107 53.1638 26.76C53.1638 27.068 53.1638 27.3947 53.1638 27.74C53.1638 28.076 53.1218 28.3513 53.0378 28.566C52.9632 28.79 52.8372 28.944 52.6598 29.028C52.4825 29.112 52.2725 29.0887 52.0298 28.958C51.9272 28.902 51.8432 28.8273 51.7778 28.734C51.7218 28.6313 51.6752 28.524 51.6378 28.412C51.6098 28.3 51.5912 28.188 51.5818 28.076C51.5725 27.9547 51.5632 27.8427 51.5538 27.74C51.5258 27.432 51.5072 27.1473 51.4978 26.886C51.4978 26.6153 51.4978 26.326 51.4978 26.018V24.002ZM64.1708 26.354C64.1708 26.6527 64.1614 26.9747 64.1428 27.32C64.1334 27.6653 64.1194 27.9873 64.1008 28.286C64.1008 28.566 64.0868 28.846 64.0588 29.126C64.0401 29.3687 64.0028 29.63 63.9468 29.91C63.8908 30.1993 63.8114 30.4653 63.7088 30.708C63.5781 31.0253 63.4008 31.296 63.1768 31.52C62.9528 31.7533 62.6634 31.9213 62.3088 32.024C62.0101 32.0987 61.7301 32.1453 61.4688 32.164C61.2074 32.192 60.9274 32.1873 60.6288 32.15C60.4328 32.122 60.2228 32.066 59.9988 31.982C59.7748 31.9073 59.5648 31.8093 59.3688 31.688C59.1728 31.5667 59.0001 31.422 58.8508 31.254C58.7014 31.0953 58.5988 30.9133 58.5428 30.708C58.4774 30.456 58.4728 30.2367 58.5288 30.05C58.5941 29.8633 58.6921 29.728 58.8228 29.644C58.9534 29.56 59.1074 29.546 59.2848 29.602C59.4621 29.658 59.6301 29.8027 59.7888 30.036C59.9008 30.204 60.0641 30.3393 60.2788 30.442C60.4934 30.5447 60.7221 30.6053 60.9648 30.624C61.2074 30.6427 61.4408 30.61 61.6648 30.526C61.8981 30.4513 62.0801 30.316 62.2108 30.12C62.3041 29.98 62.3694 29.7793 62.4068 29.518C62.4534 29.2567 62.4814 29 62.4908 28.748C62.0148 28.944 61.5248 29.0187 61.0208 28.972C60.5261 28.916 60.0734 28.762 59.6628 28.51C59.2614 28.2487 58.9348 27.9033 58.6828 27.474C58.4401 27.0353 58.3374 26.5407 58.3748 25.99C58.4028 25.514 58.5008 25.066 58.6688 24.646C58.8461 24.226 59.1354 23.876 59.5368 23.596C59.8634 23.372 60.2321 23.2273 60.6428 23.162C61.0534 23.0873 61.4501 23.05 61.8328 23.05C62.0568 23.05 62.2761 23.05 62.4908 23.05C62.7148 23.05 62.9201 23.078 63.1068 23.134C63.2934 23.19 63.4614 23.2833 63.6108 23.414C63.7601 23.5447 63.8721 23.736 63.9468 23.988C64.0681 24.38 64.1334 24.7673 64.1428 25.15C64.1614 25.5327 64.1708 25.934 64.1708 26.354ZM61.4688 27.516C61.5621 27.516 61.6508 27.5067 61.7348 27.488C61.8281 27.4693 61.9168 27.446 62.0008 27.418C62.1594 27.362 62.2761 27.2873 62.3508 27.194C62.4348 27.1007 62.4908 26.998 62.5188 26.886C62.5468 26.7647 62.5561 26.634 62.5468 26.494C62.5468 26.354 62.5468 26.2093 62.5468 26.06C62.5468 25.9387 62.5421 25.8033 62.5328 25.654C62.5328 25.5047 62.5234 25.3647 62.5048 25.234C62.4861 25.094 62.4581 24.9727 62.4208 24.87C62.3834 24.7673 62.3274 24.702 62.2528 24.674C62.1221 24.6367 61.9728 24.6133 61.8048 24.604C61.6368 24.5853 61.4688 24.5853 61.3008 24.604C61.1328 24.6133 60.9694 24.646 60.8108 24.702C60.6614 24.7487 60.5354 24.814 60.4328 24.898C60.2928 25.0193 60.1854 25.1687 60.1108 25.346C60.0361 25.5233 59.9894 25.71 59.9708 25.906C59.9614 26.102 59.9754 26.2933 60.0128 26.48C60.0594 26.6667 60.1388 26.8347 60.2508 26.984C60.3814 27.1707 60.5588 27.306 60.7828 27.39C61.0068 27.474 61.2354 27.516 61.4688 27.516ZM65.3201 24.044C65.3201 23.932 65.3201 23.806 65.3201 23.666C65.3201 23.5167 65.3248 23.3673 65.3341 23.218C65.3434 23.0593 65.3574 22.91 65.3761 22.77C65.4041 22.6207 65.4414 22.49 65.4881 22.378C65.5628 22.21 65.6794 22.098 65.8381 22.042C65.9968 21.9767 66.1694 21.9487 66.3561 21.958C66.5521 21.958 66.7061 21.9907 66.8181 22.056C66.9301 22.1213 67.0141 22.21 67.0701 22.322C67.1261 22.4247 67.1588 22.546 67.1681 22.686C67.1868 22.8167 67.1961 22.9567 67.1961 23.106C67.2801 22.9567 67.3921 22.8353 67.5321 22.742C67.6814 22.6487 67.8308 22.574 67.9801 22.518C68.1294 22.462 68.2648 22.4247 68.3861 22.406C68.5074 22.378 68.5774 22.364 68.5961 22.364C68.8294 22.3453 69.0394 22.3407 69.2261 22.35C69.4221 22.3593 69.6368 22.4013 69.8701 22.476C70.0194 22.532 70.1734 22.6113 70.3321 22.714C70.4908 22.8073 70.6308 22.9193 70.7521 23.05C70.8734 23.1807 70.9528 23.3253 70.9901 23.484C71.0368 23.6333 71.0181 23.792 70.9341 23.96C70.8034 24.1933 70.6588 24.31 70.5001 24.31C70.3414 24.3007 70.1688 24.2727 69.9821 24.226C69.8794 24.2073 69.7581 24.1653 69.6181 24.1C69.4781 24.0347 69.3568 23.9927 69.2541 23.974C68.9368 23.9273 68.6568 23.9507 68.4141 24.044C68.1714 24.1373 67.9614 24.2493 67.7841 24.38C67.5788 24.5387 67.4014 24.7207 67.2521 24.926V26.942C67.2521 27.194 67.2474 27.4553 67.2381 27.726C67.2381 27.9967 67.2008 28.244 67.1261 28.468C67.0608 28.6827 66.9441 28.86 66.7761 29C66.6174 29.1307 66.3841 29.1867 66.0761 29.168C65.9081 29.1587 65.7588 29.0793 65.6281 28.93C65.4974 28.7713 65.4181 28.6173 65.3901 28.468C65.3714 28.328 65.3574 28.16 65.3481 27.964C65.3388 27.768 65.3294 27.5627 65.3201 27.348C65.3201 27.1333 65.3201 26.9187 65.3201 26.704C65.3201 26.48 65.3201 26.2747 65.3201 26.088V24.044ZM76.152 27.082C76.264 27.054 76.376 27.0353 76.488 27.026C76.6094 27.0167 76.7167 27.0307 76.81 27.068C76.9127 27.1053 76.9967 27.1707 77.062 27.264C77.1274 27.348 77.16 27.4693 77.16 27.628C77.16 27.74 77.132 27.8473 77.076 27.95C77.02 28.0527 76.95 28.146 76.866 28.23C76.782 28.314 76.6887 28.3887 76.586 28.454C76.4834 28.51 76.3854 28.5567 76.292 28.594C76.0214 28.7153 75.7087 28.8087 75.354 28.874C75.0087 28.9393 74.6494 28.9627 74.276 28.944C73.772 28.9253 73.2867 28.8273 72.82 28.65C72.3627 28.4633 72.0034 28.16 71.742 27.74C71.4994 27.3293 71.3547 26.872 71.308 26.368C71.2614 25.864 71.2847 25.388 71.378 24.94C71.4807 24.3987 71.6534 23.96 71.896 23.624C72.148 23.2787 72.4467 23.0033 72.792 22.798C73.212 22.5553 73.6834 22.4293 74.206 22.42C74.7287 22.4107 75.228 22.5133 75.704 22.728C76.0214 22.868 76.306 23.0593 76.558 23.302C76.81 23.5353 77.0014 23.82 77.132 24.156C77.1694 24.24 77.1974 24.3427 77.216 24.464C77.244 24.5853 77.2627 24.716 77.272 24.856C77.2814 24.9867 77.2814 25.1173 77.272 25.248C77.2627 25.3787 77.2394 25.4953 77.202 25.598C77.146 25.766 77.076 25.8967 76.992 25.99C76.908 26.0833 76.8007 26.1533 76.67 26.2C76.5394 26.2467 76.3807 26.2793 76.194 26.298C76.0167 26.3073 75.802 26.3167 75.55 26.326C75.326 26.3353 75.116 26.34 74.92 26.34C74.724 26.34 74.5234 26.34 74.318 26.34C74.1127 26.3307 73.898 26.326 73.674 26.326C73.4594 26.3167 73.2167 26.3073 72.946 26.298C72.918 26.4847 72.9414 26.648 73.016 26.788C73.1 26.9187 73.212 27.0307 73.352 27.124C73.492 27.208 73.6507 27.2733 73.828 27.32C74.0054 27.3667 74.178 27.3947 74.346 27.404C74.6634 27.4227 74.9667 27.3993 75.256 27.334C75.5454 27.2593 75.844 27.1753 76.152 27.082ZM75.55 24.366C75.3727 24.1607 75.186 24.0113 74.99 23.918C74.8407 23.8527 74.682 23.8247 74.514 23.834C74.3554 23.834 74.2014 23.8573 74.052 23.904C73.7814 23.9693 73.5527 24.1093 73.366 24.324C73.3474 24.3427 73.3147 24.3893 73.268 24.464C73.2214 24.5293 73.1747 24.5993 73.128 24.674C73.0907 24.7487 73.0627 24.8187 73.044 24.884C73.0254 24.9493 73.0347 24.982 73.072 24.982H75.816C75.8067 24.8513 75.7834 24.744 75.746 24.66C75.7087 24.5667 75.6434 24.4687 75.55 24.366ZM81.7498 26.536C81.5724 26.424 81.3718 26.3353 81.1478 26.27C80.9331 26.2047 80.7091 26.144 80.4758 26.088C80.2518 26.032 80.0324 25.9713 79.8178 25.906C79.6031 25.8313 79.4071 25.7287 79.2298 25.598C78.8471 25.3087 78.6231 24.954 78.5578 24.534C78.5018 24.1047 78.5951 23.6753 78.8378 23.246C78.9684 23.022 79.1411 22.84 79.3558 22.7C79.5704 22.5507 79.8038 22.4387 80.0558 22.364C80.3171 22.28 80.5831 22.2333 80.8538 22.224C81.1244 22.2147 81.3811 22.2287 81.6238 22.266C81.7824 22.294 81.9504 22.336 82.1278 22.392C82.3051 22.4387 82.4684 22.504 82.6178 22.588C82.7764 22.672 82.9164 22.7793 83.0378 22.91C83.1684 23.0313 83.2618 23.1853 83.3178 23.372C83.3551 23.4933 83.3598 23.61 83.3318 23.722C83.3131 23.834 83.2664 23.9273 83.1918 24.002C83.1264 24.0767 83.0378 24.1327 82.9258 24.17C82.8231 24.2073 82.7111 24.2167 82.5898 24.198C82.4498 24.17 82.3191 24.128 82.1978 24.072C82.0764 24.016 81.9551 23.9553 81.8338 23.89C81.7124 23.8247 81.5864 23.7687 81.4558 23.722C81.3344 23.6753 81.2038 23.652 81.0638 23.652C80.8491 23.6427 80.6718 23.68 80.5318 23.764C80.3918 23.848 80.2938 23.9507 80.2378 24.072C80.1911 24.1933 80.1958 24.324 80.2518 24.464C80.3171 24.604 80.4478 24.7253 80.6438 24.828C80.8211 24.9213 81.0171 24.996 81.2318 25.052C81.4464 25.108 81.6564 25.164 81.8618 25.22C82.0764 25.276 82.2818 25.3413 82.4778 25.416C82.6831 25.4907 82.8651 25.5933 83.0238 25.724C83.3318 25.976 83.5184 26.27 83.5838 26.606C83.6584 26.942 83.6398 27.2733 83.5278 27.6C83.4158 27.9267 83.2198 28.216 82.9398 28.468C82.6691 28.72 82.3471 28.888 81.9738 28.972C81.7031 29.028 81.4091 29.056 81.0918 29.056C80.7838 29.056 80.4758 29.0233 80.1678 28.958C79.8691 28.8927 79.5798 28.79 79.2998 28.65C79.0291 28.51 78.8004 28.3327 78.6138 28.118C78.4831 27.9687 78.4131 27.8007 78.4038 27.614C78.4038 27.418 78.4411 27.25 78.5158 27.11C78.5998 26.9607 78.7164 26.858 78.8658 26.802C79.0151 26.746 79.1831 26.7787 79.3698 26.9C79.5191 27.0027 79.6964 27.1053 79.9017 27.208C80.1071 27.3013 80.3124 27.376 80.5178 27.432C80.7231 27.488 80.9191 27.516 81.1058 27.516C81.3018 27.516 81.4698 27.474 81.6098 27.39C81.8151 27.2593 81.9224 27.11 81.9318 26.942C81.9411 26.7647 81.8804 26.6293 81.7498 26.536ZM86.3992 23.106C86.6792 22.966 86.9732 22.868 87.2812 22.812C87.5892 22.7467 87.8925 22.7327 88.1912 22.77C88.4992 22.798 88.7932 22.8773 89.0732 23.008C89.3532 23.1293 89.6145 23.3067 89.8572 23.54C90.0998 23.7827 90.2865 24.0487 90.4172 24.338C90.5478 24.6273 90.6412 24.9493 90.6972 25.304C90.7345 25.5467 90.7952 25.7707 90.8792 25.976C90.9632 26.1813 91.0518 26.3867 91.1452 26.592C91.2478 26.7973 91.3412 27.0027 91.4252 27.208C91.5185 27.4133 91.5932 27.628 91.6492 27.852C91.6958 28.0667 91.6772 28.2767 91.5932 28.482C91.5185 28.678 91.3598 28.7993 91.1172 28.846C90.9772 28.874 90.8418 28.8647 90.7112 28.818C90.5898 28.762 90.4778 28.6873 90.3752 28.594C90.2725 28.4913 90.1792 28.384 90.0952 28.272C90.0205 28.1507 89.9505 28.0387 89.8852 27.936C89.6705 28.216 89.4372 28.4353 89.1852 28.594C88.9332 28.7433 88.6298 28.8413 88.2752 28.888C87.9765 28.9253 87.6918 28.9347 87.4212 28.916C87.1505 28.8973 86.8612 28.846 86.5532 28.762C86.1518 28.6593 85.8205 28.482 85.5592 28.23C85.3072 27.9687 85.1112 27.67 84.9712 27.334C84.8405 26.9887 84.7705 26.62 84.7612 26.228C84.7518 25.836 84.7985 25.4487 84.9012 25.066C85.0318 24.562 85.2278 24.1513 85.4892 23.834C85.7505 23.5167 86.0538 23.274 86.3992 23.106ZM86.7492 24.744C86.6185 24.8747 86.5158 25.0287 86.4412 25.206C86.3665 25.3833 86.3198 25.57 86.3012 25.766C86.2918 25.962 86.3105 26.158 86.3572 26.354C86.4038 26.55 86.4785 26.7227 86.5812 26.872C86.6745 27.0027 86.8332 27.1147 87.0572 27.208C87.2812 27.292 87.5145 27.3433 87.7572 27.362C88.0372 27.3807 88.2798 27.306 88.4852 27.138C88.6998 26.97 88.8585 26.76 88.9612 26.508C89.0732 26.2467 89.1245 25.9713 89.1152 25.682C89.1058 25.3833 89.0265 25.1127 88.8772 24.87C88.7652 24.6927 88.6158 24.562 88.4292 24.478C88.2518 24.394 88.0605 24.352 87.8552 24.352C87.6498 24.3427 87.4445 24.3753 87.2392 24.45C87.0432 24.5153 86.8798 24.6133 86.7492 24.744ZM92.8279 24.044C92.8279 23.932 92.8279 23.806 92.8279 23.666C92.8279 23.5167 92.8326 23.3673 92.8419 23.218C92.8512 23.0593 92.8652 22.91 92.8839 22.77C92.9119 22.6207 92.9492 22.49 92.9959 22.378C93.0706 22.21 93.1872 22.098 93.3459 22.042C93.5046 21.9767 93.6772 21.9487 93.8639 21.958C94.0599 21.958 94.2139 21.9907 94.3259 22.056C94.4379 22.1213 94.5219 22.21 94.5779 22.322C94.6339 22.4247 94.6666 22.546 94.6759 22.686C94.6946 22.8167 94.7039 22.9567 94.7039 23.106C94.7879 22.9567 94.8999 22.8353 95.0399 22.742C95.1892 22.6487 95.3386 22.574 95.4879 22.518C95.6372 22.462 95.7726 22.4247 95.8939 22.406C96.0152 22.378 96.0852 22.364 96.1039 22.364C96.3372 22.3453 96.5472 22.3407 96.7339 22.35C96.9299 22.3593 97.1446 22.4013 97.3779 22.476C97.5272 22.532 97.6812 22.6113 97.8399 22.714C97.9986 22.8073 98.1386 22.9193 98.2599 23.05C98.3812 23.1807 98.4606 23.3253 98.4979 23.484C98.5446 23.6333 98.5259 23.792 98.4419 23.96C98.3112 24.1933 98.1666 24.31 98.0079 24.31C97.8492 24.3007 97.6766 24.2727 97.4899 24.226C97.3872 24.2073 97.2659 24.1653 97.1259 24.1C96.9859 24.0347 96.8646 23.9927 96.7619 23.974C96.4446 23.9273 96.1646 23.9507 95.9219 24.044C95.6792 24.1373 95.4692 24.2493 95.2919 24.38C95.0866 24.5387 94.9092 24.7207 94.7599 24.926V26.942C94.7599 27.194 94.7552 27.4553 94.7459 27.726C94.7459 27.9967 94.7086 28.244 94.6339 28.468C94.5686 28.6827 94.4519 28.86 94.2839 29C94.1252 29.1307 93.8919 29.1867 93.5839 29.168C93.4159 29.1587 93.2666 29.0793 93.1359 28.93C93.0052 28.7713 92.9259 28.6173 92.8979 28.468C92.8792 28.328 92.8652 28.16 92.8559 27.964C92.8466 27.768 92.8372 27.5627 92.8279 27.348C92.8279 27.1333 92.8279 26.9187 92.8279 26.704C92.8279 26.48 92.8279 26.2747 92.8279 26.088V24.044ZM107.655 19.214C107.832 19.1673 107.986 19.1627 108.117 19.2C108.257 19.228 108.373 19.2887 108.467 19.382C108.569 19.4753 108.644 19.592 108.691 19.732C108.747 19.872 108.775 20.026 108.775 20.194C108.784 20.6607 108.784 21.0247 108.775 21.286C108.775 21.5473 108.775 21.776 108.775 21.972V26.27C108.775 26.774 108.775 27.194 108.775 27.53C108.775 27.866 108.756 28.1413 108.719 28.356C108.691 28.5613 108.635 28.7153 108.551 28.818C108.476 28.9207 108.359 28.9907 108.201 29.028C108.042 29.0747 107.832 29.098 107.571 29.098C107.319 29.098 107.001 29.098 106.619 29.098C105.611 29.098 104.813 28.86 104.225 28.384C103.646 27.908 103.338 27.152 103.301 26.116C103.282 25.668 103.338 25.2573 103.469 24.884C103.599 24.5107 103.791 24.1933 104.043 23.932C104.304 23.6613 104.621 23.456 104.995 23.316C105.377 23.1667 105.811 23.0967 106.297 23.106H107.067V20.6C107.067 20.4507 107.067 20.306 107.067 20.166C107.067 20.0167 107.081 19.8813 107.109 19.76C107.137 19.6293 107.193 19.5173 107.277 19.424C107.361 19.3307 107.487 19.2607 107.655 19.214ZM105.219 26.984C105.415 27.2547 105.769 27.404 106.283 27.432C106.385 27.4413 106.483 27.446 106.577 27.446C106.67 27.4367 106.754 27.4227 106.829 27.404C106.913 27.3947 106.992 27.3807 107.067 27.362V24.772C106.74 24.716 106.441 24.6833 106.171 24.674C105.909 24.6553 105.648 24.7487 105.387 24.954C105.247 25.066 105.139 25.2107 105.065 25.388C104.99 25.556 104.948 25.738 104.939 25.934C104.929 26.1207 104.948 26.3073 104.995 26.494C105.041 26.6807 105.116 26.844 105.219 26.984ZM111.668 23.694C111.668 23.9553 111.668 24.2493 111.668 24.576C111.677 24.9027 111.682 25.2433 111.682 25.598C111.682 25.9433 111.682 26.2887 111.682 26.634C111.682 26.97 111.677 27.2827 111.668 27.572C111.658 27.712 111.644 27.866 111.626 28.034C111.607 28.1927 111.57 28.342 111.514 28.482C111.458 28.622 111.369 28.7387 111.248 28.832C111.136 28.916 110.982 28.9533 110.786 28.944C110.496 28.9253 110.286 28.7993 110.156 28.566C110.034 28.3327 109.964 28.006 109.946 27.586C109.946 27.3713 109.941 27.124 109.932 26.844C109.932 26.564 109.927 26.2793 109.918 25.99C109.918 25.7007 109.918 25.4207 109.918 25.15C109.918 24.87 109.918 24.618 109.918 24.394C109.918 24.2633 109.913 24.1047 109.904 23.918C109.904 23.7313 109.908 23.54 109.918 23.344C109.927 23.148 109.95 22.9613 109.988 22.784C110.025 22.5973 110.086 22.4433 110.17 22.322C110.235 22.2473 110.328 22.1913 110.45 22.154C110.571 22.1073 110.697 22.084 110.828 22.084C110.968 22.084 111.098 22.1073 111.22 22.154C111.35 22.2007 111.444 22.266 111.5 22.35C111.537 22.406 111.565 22.4853 111.584 22.588C111.602 22.6907 111.616 22.8073 111.626 22.938C111.644 23.0593 111.654 23.19 111.654 23.33C111.663 23.4607 111.668 23.582 111.668 23.694ZM111.136 20.866C110.846 20.9407 110.604 20.9127 110.408 20.782C110.221 20.642 110.104 20.4367 110.058 20.166C110.02 19.97 110.034 19.7973 110.1 19.648C110.165 19.4987 110.263 19.3867 110.394 19.312C110.524 19.228 110.674 19.1907 110.842 19.2C111.01 19.2093 111.178 19.2747 111.346 19.396C111.504 19.508 111.616 19.6387 111.682 19.788C111.756 19.9373 111.78 20.082 111.752 20.222C111.733 20.362 111.672 20.4927 111.57 20.614C111.467 20.726 111.322 20.81 111.136 20.866ZM113.062 24.002C113.062 23.7873 113.058 23.5587 113.048 23.316C113.048 23.0733 113.09 22.854 113.174 22.658C113.249 22.4807 113.37 22.3547 113.538 22.28C113.716 22.196 113.888 22.1773 114.056 22.224C114.224 22.252 114.355 22.3033 114.448 22.378C114.542 22.4527 114.607 22.5413 114.644 22.644C114.691 22.7373 114.719 22.8493 114.728 22.98C114.738 23.1013 114.747 23.2227 114.756 23.344C114.85 23.176 114.966 23.0407 115.106 22.938C115.246 22.8353 115.391 22.7513 115.54 22.686C115.69 22.6207 115.83 22.574 115.96 22.546C116.1 22.518 116.208 22.504 116.282 22.504C116.637 22.504 116.987 22.5833 117.332 22.742C117.687 22.8913 117.981 23.106 118.214 23.386C118.345 23.554 118.443 23.7313 118.508 23.918C118.583 24.0953 118.634 24.282 118.662 24.478C118.7 24.674 118.723 24.8747 118.732 25.08C118.742 25.276 118.751 25.4767 118.76 25.682C118.807 26.2793 118.807 26.872 118.76 27.46C118.751 27.5813 118.746 27.7213 118.746 27.88C118.746 28.0387 118.732 28.1973 118.704 28.356C118.686 28.5053 118.644 28.6407 118.578 28.762C118.522 28.874 118.424 28.944 118.284 28.972C118.088 29.0187 117.925 29.028 117.794 29C117.673 28.9813 117.575 28.9393 117.5 28.874C117.426 28.8087 117.37 28.7247 117.332 28.622C117.295 28.5193 117.262 28.4027 117.234 28.272C117.216 28.1693 117.197 28.0527 117.178 27.922C117.169 27.782 117.16 27.642 117.15 27.502C117.15 27.362 117.146 27.2267 117.136 27.096C117.136 26.956 117.136 26.83 117.136 26.718C117.136 26.5407 117.132 26.3447 117.122 26.13C117.113 25.9153 117.113 25.7147 117.122 25.528C117.122 25.0893 117.006 24.758 116.772 24.534C116.548 24.3007 116.24 24.2027 115.848 24.24C115.55 24.2773 115.288 24.3987 115.064 24.604C114.84 24.8 114.733 25.0567 114.742 25.374C114.742 25.4953 114.742 25.6073 114.742 25.71C114.742 25.8127 114.738 25.9153 114.728 26.018C114.728 26.1207 114.728 26.2327 114.728 26.354C114.728 26.4753 114.728 26.6107 114.728 26.76C114.728 27.068 114.728 27.3947 114.728 27.74C114.728 28.076 114.686 28.3513 114.602 28.566C114.528 28.79 114.402 28.944 114.224 29.028C114.047 29.112 113.837 29.0887 113.594 28.958C113.492 28.902 113.408 28.8273 113.342 28.734C113.286 28.6313 113.24 28.524 113.202 28.412C113.174 28.3 113.156 28.188 113.146 28.076C113.137 27.9547 113.128 27.8427 113.118 27.74C113.09 27.432 113.072 27.1473 113.062 26.886C113.062 26.6153 113.062 26.326 113.062 26.018V24.002ZM124.769 27.082C124.881 27.054 124.993 27.0353 125.105 27.026C125.227 27.0167 125.334 27.0307 125.427 27.068C125.53 27.1053 125.614 27.1707 125.679 27.264C125.745 27.348 125.777 27.4693 125.777 27.628C125.777 27.74 125.749 27.8473 125.693 27.95C125.637 28.0527 125.567 28.146 125.483 28.23C125.399 28.314 125.306 28.3887 125.203 28.454C125.101 28.51 125.003 28.5567 124.909 28.594C124.639 28.7153 124.326 28.8087 123.971 28.874C123.626 28.9393 123.267 28.9627 122.893 28.944C122.389 28.9253 121.904 28.8273 121.437 28.65C120.98 28.4633 120.621 28.16 120.359 27.74C120.117 27.3293 119.972 26.872 119.925 26.368C119.879 25.864 119.902 25.388 119.995 24.94C120.098 24.3987 120.271 23.96 120.513 23.624C120.765 23.2787 121.064 23.0033 121.409 22.798C121.829 22.5553 122.301 22.4293 122.823 22.42C123.346 22.4107 123.845 22.5133 124.321 22.728C124.639 22.868 124.923 23.0593 125.175 23.302C125.427 23.5353 125.619 23.82 125.749 24.156C125.787 24.24 125.815 24.3427 125.833 24.464C125.861 24.5853 125.88 24.716 125.889 24.856C125.899 24.9867 125.899 25.1173 125.889 25.248C125.88 25.3787 125.857 25.4953 125.819 25.598C125.763 25.766 125.693 25.8967 125.609 25.99C125.525 26.0833 125.418 26.1533 125.287 26.2C125.157 26.2467 124.998 26.2793 124.811 26.298C124.634 26.3073 124.419 26.3167 124.167 26.326C123.943 26.3353 123.733 26.34 123.537 26.34C123.341 26.34 123.141 26.34 122.935 26.34C122.73 26.3307 122.515 26.326 122.291 26.326C122.077 26.3167 121.834 26.3073 121.563 26.298C121.535 26.4847 121.559 26.648 121.633 26.788C121.717 26.9187 121.829 27.0307 121.969 27.124C122.109 27.208 122.268 27.2733 122.445 27.32C122.623 27.3667 122.795 27.3947 122.963 27.404C123.281 27.4227 123.584 27.3993 123.873 27.334C124.163 27.2593 124.461 27.1753 124.769 27.082ZM124.167 24.366C123.99 24.1607 123.803 24.0113 123.607 23.918C123.458 23.8527 123.299 23.8247 123.131 23.834C122.973 23.834 122.819 23.8573 122.669 23.904C122.399 23.9693 122.17 24.1093 121.983 24.324C121.965 24.3427 121.932 24.3893 121.885 24.464C121.839 24.5293 121.792 24.5993 121.745 24.674C121.708 24.7487 121.68 24.8187 121.661 24.884C121.643 24.9493 121.652 24.982 121.689 24.982H124.433C124.424 24.8513 124.401 24.744 124.363 24.66C124.326 24.5667 124.261 24.4687 124.167 24.366ZM127.035 24.044C127.035 23.932 127.035 23.806 127.035 23.666C127.035 23.5167 127.04 23.3673 127.049 23.218C127.058 23.0593 127.072 22.91 127.091 22.77C127.119 22.6207 127.156 22.49 127.203 22.378C127.278 22.21 127.394 22.098 127.553 22.042C127.712 21.9767 127.884 21.9487 128.071 21.958C128.267 21.958 128.421 21.9907 128.533 22.056C128.645 22.1213 128.729 22.21 128.785 22.322C128.841 22.4247 128.874 22.546 128.883 22.686C128.902 22.8167 128.911 22.9567 128.911 23.106C128.995 22.9567 129.107 22.8353 129.247 22.742C129.396 22.6487 129.546 22.574 129.695 22.518C129.844 22.462 129.98 22.4247 130.101 22.406C130.222 22.378 130.292 22.364 130.311 22.364C130.544 22.3453 130.754 22.3407 130.941 22.35C131.137 22.3593 131.352 22.4013 131.585 22.476C131.734 22.532 131.888 22.6113 132.047 22.714C132.206 22.8073 132.346 22.9193 132.467 23.05C132.588 23.1807 132.668 23.3253 132.705 23.484C132.752 23.6333 132.733 23.792 132.649 23.96C132.518 24.1933 132.374 24.31 132.215 24.31C132.056 24.3007 131.884 24.2727 131.697 24.226C131.594 24.2073 131.473 24.1653 131.333 24.1C131.193 24.0347 131.072 23.9927 130.969 23.974C130.652 23.9273 130.372 23.9507 130.129 24.044C129.886 24.1373 129.676 24.2493 129.499 24.38C129.294 24.5387 129.116 24.7207 128.967 24.926V26.942C128.967 27.194 128.962 27.4553 128.953 27.726C128.953 27.9967 128.916 28.244 128.841 28.468C128.776 28.6827 128.659 28.86 128.491 29C128.332 29.1307 128.099 29.1867 127.791 29.168C127.623 29.1587 127.474 29.0793 127.343 28.93C127.212 28.7713 127.133 28.6173 127.105 28.468C127.086 28.328 127.072 28.16 127.063 27.964C127.054 27.768 127.044 27.5627 127.035 27.348C127.035 27.1333 127.035 26.9187 127.035 26.704C127.035 26.48 127.035 26.2747 127.035 26.088V24.044ZM135.061 22.672C135.369 22.5227 135.691 22.4153 136.027 22.35C136.363 22.2847 136.695 22.2707 137.021 22.308C137.357 22.3453 137.679 22.434 137.987 22.574C138.305 22.714 138.594 22.91 138.855 23.162C139.07 23.3767 139.257 23.638 139.415 23.946C139.574 24.2447 139.691 24.5387 139.765 24.828C139.924 25.3413 139.947 25.8593 139.835 26.382C139.723 26.9047 139.532 27.39 139.261 27.838C139.131 28.0433 138.967 28.23 138.771 28.398C138.585 28.5567 138.384 28.6873 138.169 28.79C137.889 28.9207 137.586 29.0093 137.259 29.056C136.933 29.112 136.615 29.126 136.307 29.098C135.747 29.07 135.253 28.93 134.823 28.678C134.403 28.426 134.063 28.104 133.801 27.712C133.549 27.32 133.381 26.8767 133.297 26.382C133.223 25.878 133.255 25.3647 133.395 24.842C133.545 24.282 133.759 23.8293 134.039 23.484C134.329 23.1293 134.669 22.8587 135.061 22.672ZM135.481 24.548C135.341 24.6787 135.234 24.842 135.159 25.038C135.085 25.234 135.038 25.4393 135.019 25.654C135.001 25.8593 135.015 26.0693 135.061 26.284C135.117 26.4893 135.201 26.676 135.313 26.844C135.407 26.984 135.575 27.1007 135.817 27.194C136.06 27.2873 136.312 27.3433 136.573 27.362C136.872 27.3807 137.133 27.3013 137.357 27.124C137.581 26.9373 137.749 26.7087 137.861 26.438C137.983 26.1673 138.039 25.8733 138.029 25.556C138.02 25.2387 137.936 24.9493 137.777 24.688C137.665 24.5013 137.507 24.366 137.301 24.282C137.105 24.1887 136.895 24.142 136.671 24.142C136.457 24.1327 136.242 24.1653 136.027 24.24C135.813 24.3053 135.631 24.408 135.481 24.548Z" fill="white"/>
<rect opacity="0.01" x="43" y="14" width="21" height="21" transform="rotate(90 43 14)" fill="white"/>
<path d="M33.7662 29.8955L38.5192 20.0118C38.7195 19.5955 38.6314 19.1251 38.2894 18.7842C37.9474 18.4434 37.4204 18.3009 36.9142 18.4123L32.9159 19.292V23.5993C32.9159 23.7975 32.7297 23.9582 32.5 23.9582C32.2703 23.9582 32.084 23.7975 32.084 23.5993V19.292L28.0858 18.4123C27.5795 18.3009 27.0526 18.4434 26.7106 18.7842C26.3679 19.1258 26.2809 19.5962 26.4808 20.0119L31.2338 29.8955C31.4501 30.3455 31.9353 30.625 32.5 30.625C33.0646 30.625 33.5499 30.3455 33.7662 29.8955Z" fill="white"/>
</svg>
